<svg width="165" height="55" viewBox="0 0 165 55" fill="none" xmlns="http://www.w3.org/2000/svg">
<rect y="0.493408" width="165" height="53.839" rx="24" fill="#313433"/>
<path d="M12.6403 36L15.538 18.5455H22.3988C23.6772 18.5455 24.7085 18.7386 25.4925 19.125C26.2823 19.5114 26.8335 20.0426 27.146 20.7188C27.4585 21.3949 27.5408 22.1676 27.3931 23.0369C27.2738 23.7301 27.0352 24.3324 26.6772 24.8438C26.3192 25.3494 25.8789 25.7642 25.3562 26.0881C24.8335 26.4119 24.271 26.642 23.6687 26.7784L23.6346 26.9489C24.271 26.9773 24.8505 27.1648 25.3732 27.5114C25.896 27.8523 26.288 28.3381 26.5494 28.9688C26.8107 29.5938 26.8704 30.3381 26.7283 31.2017C26.5749 32.1222 26.2113 32.9432 25.6374 33.6648C25.0692 34.3864 24.305 34.9574 23.3448 35.3778C22.3903 35.7926 21.2539 36 19.9357 36H12.6403ZM16.6033 33.1364H19.7653C20.8335 33.1364 21.646 32.929 22.2028 32.5142C22.7653 32.0994 23.1005 31.5568 23.2085 30.8864C23.288 30.3864 23.2397 29.9432 23.0636 29.5568C22.8874 29.1705 22.5948 28.8665 22.1857 28.6449C21.7766 28.4176 21.2624 28.304 20.6431 28.304H17.396L16.6033 33.1364ZM17.805 25.9006H20.6942C21.217 25.9006 21.6999 25.8068 22.1431 25.6193C22.5863 25.4261 22.9556 25.1562 23.2511 24.8097C23.5465 24.4631 23.7312 24.0511 23.805 23.5739C23.913 22.9205 23.771 22.392 23.3789 21.9886C22.9869 21.5795 22.3619 21.375 21.5039 21.375H18.5465L17.805 25.9006ZM32.0742 36.2557C31.2447 36.2557 30.5259 36.108 29.918 35.8125C29.31 35.517 28.8612 35.0795 28.5714 34.5C28.2873 33.9148 28.2163 33.1932 28.3583 32.3352C28.4833 31.6023 28.7219 30.9943 29.0742 30.5114C29.4265 30.0227 29.8583 29.6307 30.3697 29.3352C30.881 29.0341 31.4435 28.8068 32.0572 28.6534C32.6765 28.4943 33.3129 28.3864 33.9663 28.3295C34.739 28.25 35.364 28.1733 35.8413 28.0994C36.3242 28.0256 36.685 27.9205 36.9237 27.7841C37.168 27.642 37.3157 27.4318 37.3668 27.1534V27.1023C37.4577 26.5227 37.3583 26.0739 37.0685 25.7557C36.7788 25.4318 36.3072 25.2699 35.6538 25.2699C34.9606 25.2699 34.3754 25.4233 33.8981 25.7301C33.4265 26.0312 33.0856 26.4034 32.8754 26.8466L29.7731 26.5142C30.0913 25.7187 30.5515 25.0398 31.1538 24.4773C31.7617 23.9148 32.4805 23.4858 33.31 23.1903C34.1396 22.8892 35.0543 22.7386 36.0543 22.7386C36.7362 22.7386 37.3867 22.821 38.006 22.9858C38.631 23.1449 39.1737 23.4006 39.6339 23.7528C40.0998 24.0994 40.4379 24.5568 40.6481 25.125C40.8583 25.6932 40.8981 26.3835 40.7674 27.196L39.293 36H36.0458L36.3526 34.1932H36.2504C35.9833 34.5852 35.6509 34.9375 35.2532 35.25C34.8555 35.5568 34.3896 35.8011 33.8555 35.983C33.3271 36.1648 32.7333 36.2557 32.0742 36.2557ZM33.4123 33.8438C33.9805 33.8438 34.4975 33.7301 34.9634 33.5028C35.4293 33.2756 35.8129 32.9716 36.114 32.5909C36.4151 32.2102 36.6055 31.7841 36.685 31.3125L36.9237 29.8636C36.81 29.9375 36.6396 30.0057 36.4123 30.0682C36.1907 30.1307 35.9464 30.1875 35.6793 30.2386C35.418 30.2841 35.1538 30.3267 34.8867 30.3665C34.6254 30.4062 34.3952 30.4403 34.1964 30.4688C33.7418 30.5312 33.3327 30.6335 32.9691 30.7756C32.6055 30.9119 32.3072 31.0994 32.0742 31.3381C31.8469 31.5767 31.7049 31.8778 31.6481 32.2415C31.5629 32.7642 31.685 33.1619 32.0146 33.4347C32.3498 33.7074 32.8157 33.8438 33.4123 33.8438ZM54.4719 26.5312L51.3612 26.7784C51.3384 26.4886 51.256 26.2244 51.114 25.9858C50.9719 25.7472 50.7617 25.5568 50.4833 25.4148C50.2106 25.2727 49.8612 25.2017 49.435 25.2017C48.81 25.2017 48.256 25.3437 47.7731 25.6278C47.2958 25.9119 47.0231 26.2756 46.9549 26.7188C46.8981 27.0256 46.9748 27.2812 47.185 27.4858C47.3952 27.6847 47.8015 27.8523 48.4038 27.9886L50.6538 28.4659C51.864 28.733 52.739 29.1676 53.2788 29.7699C53.8185 30.3722 54.0089 31.1619 53.8498 32.1392C53.7134 32.9631 53.3526 33.6847 52.7674 34.304C52.1879 34.9176 51.4464 35.3977 50.543 35.7443C49.6452 36.0852 48.6509 36.2557 47.56 36.2557C45.8384 36.2557 44.5231 35.9034 43.614 35.1989C42.7106 34.4886 42.2702 33.5199 42.293 32.2926L45.6339 32.071C45.6623 32.6278 45.8555 33.0483 46.2134 33.3324C46.5771 33.6108 47.0742 33.7528 47.7049 33.7585C48.4151 33.7642 49.0174 33.6136 49.5117 33.3068C50.0117 33 50.293 32.6278 50.3555 32.1903C50.4066 31.8722 50.3214 31.6136 50.0998 31.4148C49.8782 31.2159 49.4833 31.054 48.9151 30.929L46.7418 30.4773C45.5146 30.2159 44.6367 29.7614 44.1083 29.1136C43.5799 28.4602 43.3981 27.6307 43.5629 26.625C43.6992 25.8239 44.0373 25.1335 44.5771 24.554C45.1168 23.9688 45.81 23.5199 46.6566 23.2074C47.5089 22.8949 48.4663 22.7386 49.5288 22.7386C51.1708 22.7386 52.4066 23.0795 53.2362 23.7614C54.0714 24.4432 54.4833 25.3665 54.4719 26.5312ZM61.4563 36.2557C60.1268 36.2557 59.0273 35.983 58.158 35.4375C57.2887 34.8864 56.6779 34.108 56.3256 33.1023C55.9734 32.0909 55.9137 30.8977 56.1467 29.5227C56.3683 28.1761 56.8228 26.9943 57.5103 25.9773C58.1978 24.9545 59.0586 24.1591 60.0927 23.5909C61.1325 23.0227 62.2887 22.7386 63.5614 22.7386C64.4023 22.7386 65.1665 22.875 65.854 23.1477C66.5472 23.4148 67.1268 23.8239 67.5927 24.375C68.0586 24.9205 68.3768 25.608 68.5472 26.4375C68.7234 27.267 68.7205 28.2443 68.5387 29.3693L68.3768 30.3494H57.4592L57.8001 28.1676H65.4876C65.5842 27.6165 65.5501 27.1278 65.3853 26.7017C65.2262 26.2756 64.9592 25.9403 64.5842 25.696C64.2148 25.4517 63.7518 25.3295 63.195 25.3295C62.6325 25.3295 62.1069 25.4687 61.6183 25.7472C61.1296 26.0256 60.7177 26.392 60.3825 26.8466C60.0529 27.2955 59.8398 27.7756 59.7433 28.2869L59.3683 30.4261C59.2489 31.1648 59.2745 31.7756 59.445 32.2585C59.6154 32.7358 59.9109 33.0909 60.3313 33.3239C60.7575 33.5511 61.2944 33.6648 61.9421 33.6648C62.3683 33.6648 62.7631 33.608 63.1268 33.4943C63.4961 33.375 63.8256 33.1989 64.1154 32.9659C64.4052 32.7273 64.6438 32.4318 64.8313 32.0795L67.9506 32.3438C67.6381 33.1335 67.1722 33.821 66.5529 34.4062C65.9393 34.9915 65.2006 35.446 64.337 35.7699C63.479 36.0938 62.5188 36.2557 61.4563 36.2557ZM72.913 18.5455H77.1914L80.1488 30.6392H80.3533L87.3079 18.5455H91.5863L88.6886 36H85.3221L87.2567 24.3835H87.1033L80.5494 35.9318H78.18L75.4783 24.3494H75.3249L73.3732 36H70.0153L72.913 18.5455ZM97.6438 36.2557C96.3256 36.2557 95.2319 35.9716 94.3626 35.4034C93.4989 34.8295 92.891 34.0312 92.5387 33.0085C92.1864 31.9858 92.1211 30.7955 92.3427 29.4375C92.5586 28.0966 93.0046 26.9233 93.6808 25.9176C94.3569 24.9119 95.2148 24.1307 96.2546 23.5739C97.2944 23.017 98.462 22.7386 99.7575 22.7386C101.07 22.7386 102.158 23.0256 103.022 23.5994C103.891 24.1676 104.502 24.9659 104.854 25.9943C105.212 27.017 105.28 28.2102 105.059 29.5739C104.837 30.9091 104.385 32.0795 103.703 33.0852C103.022 34.0852 102.164 34.8636 101.13 35.4205C100.096 35.9773 98.9336 36.2557 97.6438 36.2557ZM97.9592 33.5795C98.6126 33.5795 99.1893 33.3977 99.6893 33.0341C100.195 32.6648 100.61 32.1676 100.934 31.5426C101.263 30.9119 101.493 30.2045 101.624 29.4205C101.749 28.6534 101.755 27.9659 101.641 27.358C101.533 26.75 101.297 26.2699 100.934 25.9176C100.57 25.5597 100.073 25.3807 99.4421 25.3807C98.7887 25.3807 98.2092 25.5653 97.7035 25.9347C97.1978 26.2983 96.7802 26.7955 96.4506 27.4261C96.1268 28.0568 95.8995 28.767 95.7688 29.5568C95.6495 30.3182 95.6438 31.0028 95.7518 31.6108C95.8597 32.2187 96.0955 32.6989 96.4592 33.0511C96.8228 33.4034 97.3228 33.5795 97.9592 33.5795ZM115.426 22.9091L115 25.5H107.253L107.688 22.9091H115.426ZM110.015 19.7727H113.432L111.395 32.0114C111.338 32.3807 111.35 32.6648 111.429 32.8636C111.509 33.0568 111.64 33.1932 111.821 33.2727C112.009 33.3466 112.225 33.3835 112.469 33.3835C112.651 33.3835 112.827 33.3693 112.998 33.3409C113.168 33.3068 113.299 33.2812 113.39 33.2642L113.526 35.8551C113.333 35.9119 113.069 35.9744 112.733 36.0426C112.404 36.1165 112.012 36.1619 111.557 36.179C110.711 36.2074 109.986 36.0881 109.384 35.821C108.787 35.554 108.355 35.1449 108.088 34.5938C107.821 34.0369 107.765 33.3409 107.918 32.5057L110.015 19.7727ZM121.409 36.2557C120.091 36.2557 118.998 35.9716 118.128 35.4034C117.265 34.8295 116.657 34.0312 116.304 33.0085C115.952 31.9858 115.887 30.7955 116.108 29.4375C116.324 28.0966 116.77 26.9233 117.446 25.9176C118.123 24.9119 118.98 24.1307 120.02 23.5739C121.06 23.017 122.228 22.7386 123.523 22.7386C124.836 22.7386 125.924 23.0256 126.787 23.5994C127.657 24.1676 128.267 24.9659 128.62 25.9943C128.978 27.017 129.046 28.2102 128.824 29.5739C128.603 30.9091 128.151 32.0795 127.469 33.0852C126.787 34.0852 125.929 34.8636 124.895 35.4205C123.861 35.9773 122.699 36.2557 121.409 36.2557ZM121.725 33.5795C122.378 33.5795 122.955 33.3977 123.455 33.0341C123.961 32.6648 124.375 32.1676 124.699 31.5426C125.029 30.9119 125.259 30.2045 125.39 29.4205C125.515 28.6534 125.52 27.9659 125.407 27.358C125.299 26.75 125.063 26.2699 124.699 25.9176C124.336 25.5597 123.838 25.3807 123.208 25.3807C122.554 25.3807 121.975 25.5653 121.469 25.9347C120.963 26.2983 120.546 26.7955 120.216 27.4261C119.892 28.0568 119.665 28.767 119.534 29.5568C119.415 30.3182 119.409 31.0028 119.517 31.6108C119.625 32.2187 119.861 32.6989 120.225 33.0511C120.588 33.4034 121.088 33.5795 121.725 33.5795ZM130.218 36L132.4 22.9091H135.715L135.331 25.1506H135.468C135.837 24.3608 136.343 23.7585 136.985 23.3438C137.627 22.929 138.32 22.7216 139.064 22.7216C139.24 22.7216 139.431 22.7301 139.635 22.7472C139.84 22.7642 140.019 22.7898 140.172 22.8239L139.652 25.9006C139.505 25.8494 139.286 25.8068 138.996 25.7727C138.712 25.733 138.439 25.7131 138.178 25.7131C137.638 25.7131 137.135 25.8295 136.669 26.0625C136.203 26.2955 135.811 26.6222 135.493 27.0426C135.175 27.4574 134.968 27.9347 134.871 28.4744L133.635 36H130.218ZM152.159 26.5312L149.049 26.7784C149.026 26.4886 148.944 26.2244 148.801 25.9858C148.659 25.7472 148.449 25.5568 148.171 25.4148C147.898 25.2727 147.549 25.2017 147.123 25.2017C146.498 25.2017 145.944 25.3437 145.461 25.6278C144.983 25.9119 144.711 26.2756 144.642 26.7188C144.586 27.0256 144.662 27.2812 144.873 27.4858C145.083 27.6847 145.489 27.8523 146.091 27.9886L148.341 28.4659C149.551 28.733 150.426 29.1676 150.966 29.7699C151.506 30.3722 151.696 31.1619 151.537 32.1392C151.401 32.9631 151.04 33.6847 150.455 34.304C149.875 34.9176 149.134 35.3977 148.23 35.7443C147.333 36.0852 146.338 36.2557 145.248 36.2557C143.526 36.2557 142.211 35.9034 141.301 35.1989C140.398 34.4886 139.958 33.5199 139.98 32.2926L143.321 32.071C143.35 32.6278 143.543 33.0483 143.901 33.3324C144.265 33.6108 144.762 33.7528 145.392 33.7585C146.103 33.7642 146.705 33.6136 147.199 33.3068C147.699 33 147.98 32.6278 148.043 32.1903C148.094 31.8722 148.009 31.6136 147.787 31.4148C147.566 31.2159 147.171 31.054 146.603 30.929L144.429 30.4773C143.202 30.2159 142.324 29.7614 141.796 29.1136C141.267 28.4602 141.086 27.6307 141.25 26.625C141.387 25.8239 141.725 25.1335 142.265 24.554C142.804 23.9688 143.498 23.5199 144.344 23.2074C145.196 22.8949 146.154 22.7386 147.216 22.7386C148.858 22.7386 150.094 23.0795 150.924 23.7614C151.759 24.4432 152.171 25.3665 152.159 26.5312Z" fill="#DBDBDB"/>
</svg>
